<svg width="175" height="63" viewBox="0 0 175 63" fill="none" xmlns="http://www.w3.org/2000/svg">
<g clip-path="url(#clip0_234_21)">
<path d="M11.07 39.63C9.18 39.63 7.515 39.18 6.075 38.28C4.665 37.38 3.555 36.12 2.745 34.5C1.965 32.88 1.575 31.02 1.575 28.92C1.575 26.64 2.025 24.615 2.925 22.845C3.825 21.075 5.04 19.68 6.57 18.66C8.13 17.64 9.9 17.13 11.88 17.13C12.93 17.13 13.965 17.34 14.985 17.76C16.005 18.15 16.86 18.69 17.55 19.38V1.2C18.12 0.989998 18.81 0.884997 19.62 0.884997C20.31 0.884997 20.985 0.989998 21.645 1.2V31.125C21.645 32.775 21.855 33.96 22.275 34.68C22.725 35.4 23.43 35.76 24.39 35.76C24.81 35.76 25.125 35.94 25.335 36.3C25.575 36.66 25.695 37.14 25.695 37.74C25.695 38.22 25.56 38.655 25.29 39.045C25.05 39.435 24.645 39.63 24.075 39.63C21.225 39.63 19.305 38.46 18.315 36.12C17.445 37.23 16.395 38.1 15.165 38.73C13.935 39.33 12.57 39.63 11.07 39.63ZM5.76 28.92C5.76 31.05 6.24 32.73 7.2 33.96C8.19 35.16 9.54 35.76 11.25 35.76C13.14 35.76 14.655 35.115 15.795 33.825C16.965 32.535 17.55 30.84 17.55 28.74V23.7C16.95 22.89 16.185 22.245 15.255 21.765C14.325 21.255 13.365 21 12.375 21C11.085 21 9.945 21.345 8.955 22.035C7.965 22.725 7.185 23.67 6.615 24.87C6.045 26.04 5.76 27.39 5.76 28.92ZM24.3886 35.76C25.0186 35.76 25.6936 35.565 26.4136 35.175C27.1336 34.785 27.8086 34.185 28.4386 33.375C29.1886 32.355 29.7286 31.185 30.0586 29.865C30.4186 28.545 30.6436 27.21 30.7336 25.86V17.76C31.0036 17.67 31.3186 17.595 31.6786 17.535C32.0386 17.475 32.4136 17.445 32.8036 17.445C33.4936 17.445 34.1686 17.55 34.8286 17.76V30.72C34.8286 32.31 35.0686 33.555 35.5486 34.455C36.0586 35.325 36.8986 35.76 38.0686 35.76C38.5786 35.76 38.9236 35.97 39.1036 36.39C39.2836 36.81 39.3736 37.26 39.3736 37.74C39.3736 38.22 39.2386 38.655 38.9686 39.045C38.7286 39.435 38.3236 39.63 37.7536 39.63C34.6336 39.63 32.6086 38.16 31.6786 35.22C31.2586 35.91 30.8086 36.495 30.3286 36.975C29.5186 37.785 28.5736 38.43 27.4936 38.91C26.4436 39.39 25.3036 39.63 24.0736 39.63C23.6536 39.63 23.3386 39.42 23.1286 39C22.8886 38.61 22.7686 38.175 22.7686 37.695C22.7686 37.185 22.9036 36.735 23.1736 36.345C23.4136 35.955 23.8186 35.76 24.3886 35.76ZM32.8486 11.28C32.0086 11.28 31.2886 10.98 30.6886 10.38C30.0886 9.78 29.7886 9.06 29.7886 8.22C29.7886 7.32 30.0736 6.585 30.6436 6.015C31.2436 5.445 31.9786 5.16 32.8486 5.16C33.7486 5.16 34.4836 5.445 35.0536 6.015C35.6236 6.585 35.9086 7.32 35.9086 8.22C35.9086 9.09 35.6086 9.825 35.0086 10.425C34.4386 10.995 33.7186 11.28 32.8486 11.28ZM38.0556 35.76C39.0756 35.76 40.0656 35.265 41.0256 34.275C42.0156 33.255 42.8406 31.89 43.5006 30.18C43.4706 29.76 43.4556 29.34 43.4556 28.92C43.4556 26.64 43.9056 24.615 44.8056 22.845C45.7056 21.075 46.9206 19.68 48.4506 18.66C50.0106 17.64 51.7806 17.13 53.7606 17.13C54.8106 17.13 55.8456 17.34 56.8656 17.76C57.8856 18.15 58.7406 18.69 59.4306 19.38V17.535C59.7006 17.445 60.0156 17.37 60.3756 17.31C60.7356 17.25 61.1106 17.22 61.5006 17.22C62.2206 17.22 62.8956 17.325 63.5256 17.535V30.72C63.5256 32.31 63.7656 33.555 64.2456 34.455C64.7556 35.325 65.5956 35.76 66.7656 35.76C67.2756 35.76 67.6206 35.97 67.8006 36.39C67.9806 36.81 68.0706 37.26 68.0706 37.74C68.0706 38.22 67.9356 38.655 67.6656 39.045C67.4256 39.435 67.0206 39.63 66.4506 39.63C63.5106 39.63 61.5456 38.31 60.5556 35.67C59.6856 36.9 58.5906 37.875 57.2706 38.595C55.9806 39.285 54.5406 39.63 52.9506 39.63C51.2106 39.63 49.6656 39.255 48.3156 38.505C46.9956 37.725 45.9156 36.66 45.0756 35.31C43.2156 38.19 40.7706 39.63 37.7406 39.63C37.3506 39.63 37.0356 39.45 36.7956 39.09C36.5556 38.73 36.4356 38.265 36.4356 37.695C36.4356 36.405 36.9756 35.76 38.0556 35.76ZM47.6406 28.92C47.6406 31.05 48.1206 32.73 49.0806 33.96C50.0706 35.16 51.4206 35.76 53.1306 35.76C55.0206 35.76 56.5356 35.115 57.6756 33.825C58.8456 32.535 59.4306 30.84 59.4306 28.74V23.7C58.8306 22.89 58.0656 22.245 57.1356 21.765C56.2056 21.255 55.2456 21 54.2556 21C52.9656 21 51.8256 21.345 50.8356 22.035C49.8456 22.725 49.0656 23.67 48.4956 24.87C47.9256 26.04 47.6406 27.39 47.6406 28.92ZM66.7519 35.76C67.7719 35.76 68.7619 35.265 69.7219 34.275C70.7119 33.255 71.5369 31.89 72.1969 30.18C72.1669 29.76 72.1519 29.34 72.1519 28.92C72.1519 26.64 72.6019 24.615 73.5019 22.845C74.4019 21.075 75.6169 19.68 77.1469 18.66C78.7069 17.64 80.4769 17.13 82.4569 17.13C83.5069 17.13 84.5419 17.34 85.5619 17.76C86.5819 18.15 87.4369 18.69 88.1269 19.38V17.535C88.3969 17.445 88.7119 17.37 89.0719 17.31C89.4319 17.25 89.8069 17.22 90.1969 17.22C90.9169 17.22 91.5919 17.325 92.2219 17.535V51.6C92.2219 58.62 89.6569 62.13 84.5269 62.13C82.1569 62.13 80.2969 61.425 78.9469 60.015C77.6269 58.605 76.9669 56.67 76.9669 54.21C76.9669 48.72 80.7169 43.575 88.2169 38.775V36.885C87.3769 37.755 86.4019 38.43 85.2919 38.91C84.1819 39.39 82.9669 39.63 81.6469 39.63C79.9069 39.63 78.3619 39.255 77.0119 38.505C75.6919 37.725 74.6119 36.66 73.7719 35.31C71.9119 38.19 69.4669 39.63 66.4369 39.63C66.0469 39.63 65.7319 39.45 65.4919 39.09C65.2519 38.73 65.1319 38.265 65.1319 37.695C65.1319 36.405 65.6719 35.76 66.7519 35.76ZM76.3369 28.92C76.3369 31.05 76.8169 32.73 77.7769 33.96C78.7669 35.16 80.1169 35.76 81.8269 35.76C83.7169 35.76 85.2319 35.115 86.3719 33.825C87.5419 32.535 88.1269 30.84 88.1269 28.74V23.7C87.5269 22.89 86.7619 22.245 85.8319 21.765C84.9019 21.255 83.9419 21 82.9519 21C81.6619 21 80.5219 21.345 79.5319 22.035C78.5419 22.725 77.7619 23.67 77.1919 24.87C76.6219 26.04 76.3369 27.39 76.3369 28.92ZM81.0169 54.12C81.0169 55.41 81.3169 56.415 81.9169 57.135C82.5169 57.885 83.3419 58.26 84.3919 58.26C86.9419 58.26 88.2169 56.04 88.2169 51.6V43.545C83.4169 46.935 81.0169 50.46 81.0169 54.12ZM92.283 41.97C91.923 42.21 91.608 42.33 91.338 42.33C90.888 42.33 90.468 41.985 90.078 41.295C89.658 40.635 89.448 39.975 89.448 39.315C89.448 39.045 89.538 38.835 89.718 38.685C89.868 38.505 90.198 38.28 90.708 38.01C91.998 37.35 93.228 36.255 94.398 34.725C95.538 33.165 96.633 31.2 97.683 28.83L98.898 26.13C99.918 23.88 100.878 22.11 101.778 20.82C102.678 19.5 103.608 18.555 104.568 17.985C105.558 17.415 106.668 17.13 107.898 17.13C109.248 17.13 110.388 17.535 111.318 18.345C112.248 19.125 112.893 20.19 113.253 21.54C114.093 20.13 115.173 19.05 116.493 18.3C117.813 17.52 119.283 17.13 120.903 17.13C123.243 17.13 125.043 17.895 126.303 19.425C127.593 20.955 128.238 23.1 128.238 25.86V31.125C128.238 32.775 128.448 33.96 128.868 34.68C129.318 35.4 130.023 35.76 130.983 35.76C131.403 35.76 131.718 35.94 131.928 36.3C132.168 36.66 132.288 37.14 132.288 37.74C132.288 38.22 132.153 38.655 131.883 39.045C131.643 39.435 131.238 39.63 130.668 39.63C126.318 39.63 124.143 36.96 124.143 31.62V25.86C124.143 22.62 122.868 21 120.318 21C118.998 21 117.828 21.525 116.808 22.575C115.818 23.625 115.038 25.08 114.468 26.94C113.928 28.8 113.658 30.96 113.658 33.42V39C113.358 39.09 113.028 39.165 112.668 39.225C112.308 39.285 111.963 39.315 111.633 39.315C110.913 39.315 110.238 39.21 109.608 39V24.645C109.608 23.475 109.458 22.575 109.158 21.945C108.858 21.315 108.318 21 107.538 21C106.698 21 105.873 21.525 105.063 22.575C104.283 23.625 103.383 25.35 102.363 27.75L101.418 30C100.218 32.91 98.913 35.295 97.503 37.155C96.063 39.015 94.323 40.62 92.283 41.97ZM131 35.76C131.99 35.76 132.95 35.295 133.88 34.365C134.84 33.405 135.65 32.13 136.31 30.54C136.19 29.82 136.13 29.085 136.13 28.335C136.13 26.175 136.595 24.255 137.525 22.575C138.455 20.895 139.715 19.575 141.305 18.615C142.925 17.625 144.74 17.13 146.75 17.13C148.76 17.13 150.56 17.625 152.15 18.615C153.74 19.575 154.985 20.895 155.885 22.575C156.815 24.255 157.28 26.175 157.28 28.335C157.28 30.495 156.815 32.43 155.885 34.14C154.985 35.85 153.74 37.2 152.15 38.19C150.59 39.15 148.79 39.63 146.75 39.63C144.92 39.63 143.255 39.24 141.755 38.46C140.285 37.65 139.07 36.555 138.11 35.175C136.25 38.145 133.775 39.63 130.685 39.63C130.295 39.63 129.98 39.45 129.74 39.09C129.5 38.73 129.38 38.265 129.38 37.695C129.38 36.405 129.92 35.76 131 35.76ZM146.705 35.76C148.625 35.76 150.155 35.085 151.295 33.735C152.465 32.385 153.05 30.585 153.05 28.335C153.05 27.225 152.885 26.205 152.555 25.275C150.755 25.215 149.12 24.855 147.65 24.195C146.21 23.535 145.07 22.635 144.23 21.495C143.03 22.005 142.085 22.875 141.395 24.105C140.705 25.305 140.36 26.745 140.36 28.425C140.36 30.615 140.93 32.385 142.07 33.735C143.24 35.085 144.785 35.76 146.705 35.76ZM165.779 39.63C164.729 39.63 163.679 39.465 162.629 39.135C161.579 38.835 160.484 38.34 159.344 37.65C159.284 36.06 159.884 34.89 161.144 34.14C162.794 35.22 164.354 35.76 165.824 35.76C167.084 35.76 168.089 35.43 168.839 34.77C169.589 34.08 169.964 33.21 169.964 32.16C169.964 30.84 169.244 29.61 167.804 28.47L164.384 25.77C163.274 24.9 162.419 23.97 161.819 22.98C159.449 24.45 156.914 25.185 154.214 25.185C153.734 25.185 153.329 25.005 152.999 24.645C152.669 24.285 152.504 23.82 152.504 23.25C152.504 22.02 153.014 21.405 154.034 21.405C155.144 21.405 156.299 21.21 157.499 20.82C158.669 20.4 159.719 19.815 160.649 19.065C160.649 18.975 160.649 18.87 160.649 18.75C160.649 17.25 160.919 16.14 161.459 15.42C162.029 14.7 162.494 14.265 162.854 14.115C163.364 13.995 163.904 14.01 164.474 14.16C165.074 14.28 165.614 14.49 166.094 14.79C166.574 15.09 166.904 15.45 167.084 15.87C166.934 16.77 166.649 17.625 166.229 18.435C165.809 19.215 165.299 19.935 164.699 20.595C164.909 20.985 165.179 21.36 165.509 21.72C165.869 22.08 166.319 22.47 166.859 22.89L170.279 25.68C171.509 26.67 172.424 27.705 173.024 28.785C173.654 29.835 173.969 31.02 173.969 32.34C173.969 33.72 173.624 34.965 172.934 36.075C172.244 37.185 171.284 38.055 170.054 38.685C168.824 39.315 167.399 39.63 165.779 39.63Z" fill="url(#paint0_linear_234_21)"/>
</g>
<defs>
<linearGradient id="paint0_linear_234_21" x1="0" y1="-5" x2="175" y2="65" gradientUnits="userSpaceOnUse">
<stop stop-color="#7C3AED"/>
<stop offset="1" stop-color="#8036FF"/>
</linearGradient>
<clipPath id="clip0_234_21">
<rect width="175" height="63" fill="white"/>
</clipPath>
</defs>
</svg>
